HIERARCHY
ROOT Hips
{
  OFFSET 5.80788e-005 67.184 3.4734
  CHANNELS 6 Xposition Yposition Zposition Zrotation Xrotation Yrotation
  JOINT Chest
  {
    OFFSET 0 8.7983 -4.7612
    CHANNELS 3 Zrotation Xrotation Yrotation
    JOINT Chest2
    {
      OFFSET 0 8.0291 0.4195
      CHANNELS 3 Zrotation Xrotation Yrotation
      JOINT Chest3
      {
        OFFSET 0 9.9351 -2.2114
        CHANNELS 3 Zrotation Xrotation Yrotation
        JOINT Neck
        {
          OFFSET 0 22.3885 -0.4656
          CHANNELS 3 Zrotation Xrotation Yrotation
          JOINT Head
          {
            OFFSET -0.0001 12.643 3.4389
            CHANNELS 3 Zrotation Xrotation Yrotation
            End Site
            {
              OFFSET 0.0001 17.6655 0.5274
            }
          }
        }
        JOINT LeftCollar
        {
          OFFSET 2.2603 21.606 7.4023
          CHANNELS 3 Zrotation Xrotation Yrotation
          JOINT LeftShoulder
          {
            OFFSET 13.5163 -1.1332 -5.0146
            CHANNELS 3 Zrotation Xrotation Yrotation
            JOINT LeftElbow
            {
              OFFSET -0.0995 -28.05 -0.2431
              CHANNELS 3 Zrotation Xrotation Yrotation
              JOINT LeftWrist
              {
                OFFSET 0.0679 -23.3996 -0.1402
                CHANNELS 3 Zrotation Xrotation Yrotation
                JOINT LeftFinger1
                {
                  OFFSET 0.7932 -9.069 2.5189
                  CHANNELS 3 Zrotation Xrotation Yrotation
                  JOINT LeftFinger11
                  {
                    OFFSET -0.8272 -3.3923 0.5977
                    CHANNELS 3 Zrotation Xrotation Yrotation
                    JOINT LeftFinger12
                    {
                      OFFSET -0.5649 -2.3158 0.4082
                      CHANNELS 3 Zrotation Xrotation Yrotation
                      End Site
                      {
                        OFFSET -0.4919 -1.6479 0.2673
                      }
                    }
                  }
                }
                JOINT LeftFinger2
                {
                  OFFSET 0.9159 -9.2044 0.2193
                  CHANNELS 3 Zrotation Xrotation Yrotation
                  JOINT LeftFinger21
                  {
                    OFFSET 0.0117 -4.1944 -0.0248
                    CHANNELS 3 Zrotation Xrotation Yrotation
                    JOINT LeftFinger22
                    {
                      OFFSET 0.0071 -2.3249 -0.0142
                      CHANNELS 3 Zrotation Xrotation Yrotation
                      End Site
                      {
                        OFFSET -0.1475 -2.0882 0.0028
                      }
                    }
                  }
                }
                JOINT LeftFinger3
                {
                  OFFSET 0.6113 -8.7231 -2.0637
                  CHANNELS 3 Zrotation Xrotation Yrotation
                  JOINT LeftFinger31
                  {
                    OFFSET -0.1927 -3.8059 -0.2383
                    CHANNELS 3 Zrotation Xrotation Yrotation
                    JOINT LeftFinger32
                    {
                      OFFSET -0.1091 -2.1688 -0.1362
                      CHANNELS 3 Zrotation Xrotation Yrotation
                      End Site
                      {
                        OFFSET -0.2358 -1.9176 -0.0906
                      }
                    }
                  }
                }
                JOINT LeftFinger4
                {
                  OFFSET -0.6151 -8.0947 -3.5641
                  CHANNELS 3 Zrotation Xrotation Yrotation
                  JOINT LeftFinger41
                  {
                    OFFSET -0.4882 -2.341 -0.6462
                    CHANNELS 3 Zrotation Xrotation Yrotation
                    JOINT LeftFinger42
                    {
                      OFFSET -0.3575 -1.7167 -0.4742
                      CHANNELS 3 Zrotation Xrotation Yrotation
                      End Site
                      {
                        OFFSET -0.4187 -1.5237 -0.3496
                      }
                    }
                  }
                }
                JOINT LeftFinger0
                {
                  OFFSET -1.42 -1.8761 1.4223
                  CHANNELS 3 Zrotation Xrotation Yrotation
                  JOINT LeftFinger01
                  {
                    OFFSET -1.1471 -3.4929 2.6334
                    CHANNELS 3 Zrotation Xrotation Yrotation
                    JOINT LeftFinger02
                    {
                      OFFSET -0.823 -2.3 1.6571
                      CHANNELS 3 Zrotation Xrotation Yrotation
                      End Site
                      {
                        OFFSET -0.5822 -1.6914 1.1582
                      }
                    }
                  }
                }
              }
            }
          }
        }
        JOINT RightCollar
        {
          OFFSET -2.2603 21.606 7.4023
          CHANNELS 3 Zrotation Xrotation Yrotation
          JOINT RightShoulder
          {
            OFFSET -13.5187 -1.1334 -5.0155
            CHANNELS 3 Zrotation Xrotation Yrotation
            JOINT RightElbow
            {
              OFFSET 0.0994 -28.0499 -0.2431
              CHANNELS 3 Zrotation Xrotation Yrotation
              JOINT RightWrist
              {
                OFFSET -0.0679 -23.3996 -0.1402
                CHANNELS 3 Zrotation Xrotation Yrotation
                JOINT RightFinger1
                {
                  OFFSET -0.7932 -9.0691 2.5189
                  CHANNELS 3 Zrotation Xrotation Yrotation
                  JOINT RightFinger11
                  {
                    OFFSET 0.8272 -3.3923 0.5977
                    CHANNELS 3 Zrotation Xrotation Yrotation
                    JOINT RightFinger12
                    {
                      OFFSET 0.565 -2.3158 0.4082
                      CHANNELS 3 Zrotation Xrotation Yrotation
                      End Site
                      {
                        OFFSET 0.4919 -1.6479 0.2673
                      }
                    }
                  }
                }
                JOINT RightFinger2
                {
                  OFFSET -0.916 -9.2044 0.2193
                  CHANNELS 3 Zrotation Xrotation Yrotation
                  JOINT RightFinger21
                  {
                    OFFSET -0.0117 -4.1944 -0.0248
                    CHANNELS 3 Zrotation Xrotation Yrotation
                    JOINT RightFinger22
                    {
                      OFFSET -0.0071 -2.3249 -0.0142
                      CHANNELS 3 Zrotation Xrotation Yrotation
                      End Site
                      {
                        OFFSET 0.1475 -2.0882 0.0028
                      }
                    }
                  }
                }
                JOINT RightFinger3
                {
                  OFFSET -0.6113 -8.7231 -2.0637
                  CHANNELS 3 Zrotation Xrotation Yrotation
                  JOINT RightFinger31
                  {
                    OFFSET 0.1927 -3.8059 -0.2383
                    CHANNELS 3 Zrotation Xrotation Yrotation
                    JOINT RightFinger32
                    {
                      OFFSET 0.1091 -2.1688 -0.1362
                      CHANNELS 3 Zrotation Xrotation Yrotation
                      End Site
                      {
                        OFFSET 0.2358 -1.9176 -0.0906
                      }
                    }
                  }
                }
                JOINT RightFinger4
                {
                  OFFSET 0.6151 -8.0947 -3.564
                  CHANNELS 3 Zrotation Xrotation Yrotation
                  JOINT RightFinger41
                  {
                    OFFSET 0.4882 -2.341 -0.6462
                    CHANNELS 3 Zrotation Xrotation Yrotation
                    JOINT RightFinger42
                    {
                      OFFSET 0.3574 -1.7166 -0.4742
                      CHANNELS 3 Zrotation Xrotation Yrotation
                      End Site
                      {
                        OFFSET 0.4187 -1.5237 -0.3496
                      }
                    }
                  }
                }
                JOINT RightFinger0
                {
                  OFFSET 1.4199 -1.8761 1.4221
                  CHANNELS 3 Zrotation Xrotation Yrotation
                  JOINT RightFinger01
                  {
                    OFFSET 1.1472 -3.4929 2.6336
                    CHANNELS 3 Zrotation Xrotation Yrotation
                    JOINT RightFinger02
                    {
                      OFFSET 0.8229 -2.3 1.6571
                      CHANNELS 3 Zrotation Xrotation Yrotation
                      End Site
                      {
                        OFFSET 0.5822 -1.6914 1.1582
                      }
                    }
                  }
                }
              }
            }
          }
        }
      }
    }
  }
  JOINT RightHip
  {
    OFFSET -9.412 3.9771 -0.7758
    CHANNELS 3 Zrotation Xrotation Yrotation
    JOINT RightKnee
    {
      OFFSET -0.7531 -40.938 0
      CHANNELS 3 Zrotation Xrotation Yrotation
      JOINT RightAnkle
      {
        OFFSET 0 -40.1986 0
        CHANNELS 3 Zrotation Xrotation Yrotation
        JOINT RightToe
        {
          OFFSET 0 -4.4182 9.239
          CHANNELS 3 Zrotation Xrotation Yrotation
          End Site
          {
            OFFSET 0 0 6.1981
          }
        }
      }
    }
  }
  JOINT LeftHip
  {
    OFFSET 9.4119 3.9773 -0.7758
    CHANNELS 3 Zrotation Xrotation Yrotation
    JOINT LeftKnee
    {
      OFFSET 0.7532 -40.9383 0
      CHANNELS 3 Zrotation Xrotation Yrotation
      JOINT LeftAnkle
      {
        OFFSET 0 -40.1986 0
        CHANNELS 3 Zrotation Xrotation Yrotation
        JOINT LeftToe
        {
          OFFSET 0 -4.4182 9.239
          CHANNELS 3 Zrotation Xrotation Yrotation
          End Site
          {
            OFFSET 0 0 6.1981
          }
        }
      }
    }
  }
}
MOTION
Frames:	4
Frame Time:	0.0333333
5.80788e-005 78.5254 3.4734 0 0 -0 0 0 -0 0 0 -0 0 0 -0 0 0 -0 0 0 -0 0 0 -12.5014 88.1196 14.2451 10.6914 -0.00160068 -0.00239207 0.000740045 -8.4365e-005 7.00714e-005 -9.52055e-007 9.93923e-017 -1.98785e-016 -1.59028e-015 9.93923e-017 -5.96354e-016 -1.59028e-015 -9.93923e-017 -5.96354e-016 -1.59028e-015 9.93923e-017 -1.98785e-016 -1.59028e-015 -0.0128176 0.00232552 8.52707e-005 9.93923e-017 5.96354e-016 -0 9.93923e-017 -1.98785e-016 -1.59028e-015 -0.0160551 0.00299681 0.000857156 -2.48481e-016 0 3.18055e-015 9.93923e-017 -1.98785e-016 -1.59028e-015 -0.0125865 0.0031206 0.00282719 0 1.98785e-016 -0 9.93923e-017 -1.98785e-016 -1.59028e-015 9.93923e-017 -5.96354e-016 -1.59028e-015 -9.93923e-017 -5.96354e-016 -1.59028e-015 -0.865644 0.16582 7.03859 -88.0329 10.2057 -10.5567 0.0015593 -0.00248883 -0.000788628 7.87605e-005 4.10553e-005 1.24965e-005 -3.97569e-016 -7.95139e-016 3.18055e-015 -1.98785e-016 -3.97569e-016 3.18055e-015 -1.98785e-016 0 3.18055e-015 -3.97569e-016 -7.95139e-016 3.18055e-015 0.0129473 0.00231697 -8.70038e-005 9.93923e-017 -7.95139e-016 1.59028e-015 -3.97569e-016 -7.95139e-016 3.18055e-015 0.0163314 0.00303369 -0.000872333 3.97569e-016 7.95139e-016 -3.18055e-015 -3.97569e-016 -7.95139e-016 3.18055e-015 0.0145763 0.00367772 -0.00326275 9.93923e-017 -3.97569e-016 -0 -3.97569e-016 -7.95139e-016 3.18055e-015 -1.98785e-016 -3.97569e-016 3.18055e-015 -1.98785e-016 0 3.18055e-015 3.4248 1.369 -0.0640251 0.000190474 0.692919 0.00145812 -3.42573 -2.06197 -0.0607404 -1.10968e-024 9.47879e-023 1.85133e-025 -3.42484 1.35492 0.0638735 -0.000213973 0.719875 -0.00111157 3.42583 -2.07484 0.0613174 -1.3179e-023 0 -1.48106e-024 
7.48213e-005 6.40182 -69.3604 -180 -83.3313 -180 -0.0670394 9.11551 -0.11652 -0.117295 18.2312 -0.226466 -0.117296 18.2312 -0.226467 4.33107e-007 19.2311 1.42506e-006 -8.45789e-008 9.54106 2.4955e-007 0.623713 0.716364 -3.11439 -3.15137 34.5282 25.8018 -44.9201 -75.5243 -73.8989 -6.4587 2.05567 -25.6224 7.95139e-016 -7.95139e-016 -4.07509e-015 -7.95139e-016 0 -4.12478e-015 1.44831e-032 7.95139e-016 -1.04362e-015 7.95139e-016 -7.95139e-016 -4.07509e-015 -0.0128304 0.00233509 9.47947e-005 3.53674e-007 -1.10337e-005 -1.60021e-005 7.95139e-016 -7.95139e-016 -4.07509e-015 -0.0160335 0.00299718 0.000854454 -2.71372e-006 -7.75361e-008 -5.53635e-006 7.95139e-016 -7.95139e-016 -4.07509e-015 -0.0125601 0.00313109 0.00282565 -1.59028e-015 0 2.08724e-015 7.95139e-016 -7.95139e-016 -4.07509e-015 -7.95139e-016 0 -4.12478e-015 1.44831e-032 7.95139e-016 -1.04362e-015 -1.48611 1.03456 -2.39019 -0.385899 35.9065 -18.7125 42.7109 -77.085 71.0696 6.02801 1.47294 25.8448 -1.71639e-006 2.4709e-007 -2.36857e-006 -2.38542e-015 -7.95139e-016 -2.88238e-015 -1.59028e-015 -1.59028e-015 -6.55989e-015 -1.71639e-006 2.4709e-007 -2.36857e-006 0.0129544 0.00230291 -8.47499e-005 7.95139e-016 3.18055e-015 -2.42517e-014 -1.71639e-006 2.4709e-007 -2.36857e-006 0.016346 0.00302952 -0.000879547 1.59028e-015 -7.95139e-016 -8.44835e-015 -1.71639e-006 2.4709e-007 -2.36857e-006 0.0145991 0.00368437 -0.00327503 7.95139e-016 7.95139e-016 -1.19271e-014 -1.71639e-006 2.4709e-007 -2.36857e-006 -2.38542e-015 -7.95139e-016 -2.88238e-015 -1.59028e-015 -1.59028e-015 -6.55989e-015 -45.7994 -42.3899 -9.57563 173.44 68.6881 -176.466 -7.72331 13.6328 -2.25403 -1.65635e-006 3.89998e-006 -2.09944e-006 45.8791 -42.3872 9.67027 -173.443 68.6875 176.463 7.79625 13.621 2.19927 8.27057e-007 -8.18506e-007 -1.74839e-007 
0.000231212 11.3219 -63.6009 -180 -89.9981 -180 -0.0603463 8.06055 -0.110005 -0.106486 16.1213 -0.214574 -0.106486 16.1213 -0.214574 4.48649e-007 17.353 1.48974e-006 1.04023e-007 8.20049 -1.5995e-007 0.480673 2.05624 -2.97781 3.57514 33.6372 25.1832 -32.3306 -71.2861 -59.2586 -6.68378 2.24223 -24.5754 -5.96354e-016 0 2.93207e-015 -1.39149e-015 3.18055e-015 2.6339e-015 -2.5842e-015 -3.18055e-015 9.24349e-015 -5.96354e-016 0 2.93207e-015 -0.0128153 0.00232311 8.69516e-005 1.39149e-015 1.59028e-015 2.33572e-015 -5.96354e-016 0 2.93207e-015 -0.01605 0.0029971 0.000862304 3.68914e-006 2.46188e-006 -1.44e-006 -5.96354e-016 0 2.93207e-015 -0.0126188 0.00311904 0.00283426 -3.44839e-006 6.45323e-006 7.44428e-006 -5.96354e-016 0 2.93207e-015 -1.39149e-015 3.18055e-015 2.6339e-015 -2.5842e-015 -3.18055e-015 9.24349e-015 -1.50919 2.44849 -2.77389 -6.54909 34.3684 -18.4171 29.0595 -72.6158 55.4552 6.41722 1.5699 25.0224 2.38542e-015 4.77083e-015 -8.34896e-015 2.38542e-015 3.18055e-015 -8.74653e-015 2.78299e-015 4.77083e-015 -1.83876e-014 2.38542e-015 4.77083e-015 -8.34896e-015 0.0129587 0.00232291 -8.90803e-005 3.97569e-016 0 3.47873e-015 2.38542e-015 4.77083e-015 -8.34896e-015 0.016329 0.0030393 -0.000880748 -2.02015e-006 1.74686e-006 1.74304e-006 2.38542e-015 4.77083e-015 -8.34896e-015 0.0145694 0.00367686 -0.00326282 1.19271e-015 -4.77083e-015 3.77691e-015 2.38542e-015 4.77083e-015 -8.34896e-015 2.38542e-015 3.18055e-015 -8.74653e-015 2.78299e-015 4.77083e-015 -1.83876e-014 -40.8669 -39.7368 -6.99035 170.496 76.1505 -173.322 -6.39779 12.848 -2.72461 -1.32785e-006 1.01761e-006 5.41132e-006 41.3763 -39.7222 7.61082 -170.497 76.1523 173.317 6.87338 12.7774 2.39217 -6.53922e-008 3.5811e-009 -2.54092e-006 
0.000374278 11.3213 -63.601 -180 -89.9981 -180 -0.0584541 7.65994 -0.111246 -0.103146 15.3201 -0.217483 -0.103147 15.3201 -0.217484 8.19828e-008 16.836 6.84903e-007 2.79061e-008 7.56075 -1.16588e-007 0.363132 3.35438 -2.24079 3.97699 33.6692 25.0109 -32.3308 -71.2861 -59.2588 -7.30246 2.54324 -25.2425 -1.98785e-015 3.18055e-015 5.41688e-015 -1.98785e-015 3.18055e-015 5.51627e-015 -1.59028e-015 4.77083e-015 5.66536e-015 -1.98785e-015 3.18055e-015 5.41688e-015 -0.0128195 0.00231693 8.17913e-005 3.97569e-016 -4.77083e-015 -1.03368e-014 -1.98785e-015 3.18055e-015 5.41688e-015 -0.0160449 0.00300064 0.000848935 -2.38542e-015 0 -1.83876e-015 -1.98785e-015 3.18055e-015 5.41688e-015 -0.0125719 0.00311542 0.00281693 -5.01803e-006 5.5766e-006 -1.01664e-006 -1.98785e-015 3.18055e-015 5.41688e-015 -1.98785e-015 3.18055e-015 5.51627e-015 -1.59028e-015 4.77083e-015 5.66536e-015 -1.53958 3.82812 -3.74183 -6.61132 34.3511 -18.3916 28.4011 -72.6316 54.8166 7.17032 1.74913 25.9153 7.95139e-016 -1.59028e-015 -1.12313e-014 -2.38542e-015 0 -1.20265e-014 -1.19271e-015 1.59028e-015 -2.5842e-015 7.95139e-016 -1.59028e-015 -1.12313e-014 0.0129633 0.00231357 -8.76962e-005 1.98785e-015 1.59028e-015 -8.64713e-015 7.95139e-016 -1.59028e-015 -1.12313e-014 0.0163402 0.00303566 -0.000875065 1.59028e-015 -4.77083e-015 -4.96962e-015 7.95139e-016 -1.59028e-015 -1.12313e-014 0.0146001 0.00369029 -0.00326746 -2.38542e-015 -1.59028e-015 6.06293e-015 7.95139e-016 -1.59028e-015 -1.12313e-014 -2.38542e-015 0 -1.20265e-014 -1.19271e-015 1.59028e-015 -2.5842e-015 -39.7255 -39.7976 -5.59661 170.499 76.1467 -173.327 -5.3444 12.9793 -3.44356 2.07839e-007 1.9876e-007 -4.68942e-008 40.6487 -39.7846 6.71953 -170.499 76.1499 173.32 6.20425 12.8612 2.84551 -1.2901e-007 -1.74226e-006 -5.08223e-006 
